<svg id="Layer_1" data-name="Layer 1" xmlns="http://www.w3.org/2000/svg" viewBox="0 0 438.48 78.54"><defs><style>.cls-1{fill:#07a65e;stroke-width:0}</style></defs><path class="cls-1" d="M412.71 65.68c0 1.93 1.49 3.43 3.43 3.43s3.34-1.58 3.34-3.43V50.2c0-13.11 7.21-19.7 16.01-20.76 1.76-.26 2.99-1.58 2.99-3.43s-1.32-3.43-3.34-3.43c-5.72 0-12.31 4.57-15.66 12.14v-8.53c0-1.93-1.5-3.43-3.43-3.43s-3.34 1.58-3.34 3.43v39.49Zm-12.4-2.81c.7-.62 1.06-1.41 1.06-2.2 0-1.58-1.32-2.9-2.99-2.9-.79 0-1.41.35-1.93.79-3.34 3.08-7.48 5.28-13.11 5.28-8.09 0-15.04-5.54-16.01-15.39h32.9c1.67 0 3.17-1.32 3.17-3.16 0-12.05-7.65-23.04-21.11-23.04-12.58 0-21.81 10.55-21.81 23.66v.18c0 14.07 10.2 23.66 22.69 23.66 7.74 0 12.84-2.73 17.15-6.86m-32.99-19.46c.88-8.88 6.86-15.48 14.78-15.48 9.06 0 13.81 7.21 14.51 15.48h-29.29Zm-55.59 22.25c0 1.93 1.49 3.43 3.43 3.43s3.34-1.5 3.34-3.43V42.64c0-8.53 5.8-14.25 13.63-14.25s12.58 5.28 12.58 13.72v23.57c0 1.93 1.49 3.43 3.43 3.43s3.34-1.5 3.34-3.43V40.44c0-10.82-6.42-18.21-17.41-18.21-7.83 0-12.58 3.96-15.57 8.88V7.46c0-1.85-1.5-3.43-3.43-3.43s-3.34 1.58-3.34 3.43v58.23Zm-17.68 3.78c2.64 0 4.75-.44 6.68-1.23 1.14-.44 1.93-1.41 1.93-2.64 0-1.58-1.32-2.9-2.9-2.9-.53 0-1.76.62-4.13.62-4.57 0-7.65-2.02-7.65-7.56V29.19h11.79c1.67 0 3.08-1.32 3.08-2.99 0-1.58-1.41-2.99-3.08-2.99h-11.79V12.48c0-1.85-1.58-3.43-3.43-3.43s-3.34 1.58-3.34 3.43v10.73h-3.69c-1.58 0-2.99 1.32-2.99 2.99 0 1.58 1.41 2.99 2.99 2.99h3.69v27.44c0 9.24 5.54 12.84 12.84 12.84m-48.2-5.2c-6.16 0-11.43-3.34-11.43-9.06v-.18c0-5.72 4.75-9.41 13.28-9.41 5.54 0 10.03.97 13.37 1.93v4.4c0 7.21-6.86 12.31-15.22 12.31m-1.32 5.38c8 0 13.28-3.69 16.45-7.83v4.13c0 1.76 1.32 3.17 3.25 3.17s3.26-1.41 3.26-3.34V40.88c0-5.81-1.58-10.2-4.66-13.28-3.34-3.34-8.27-5.01-14.69-5.01-5.81 0-10.38 1.14-14.87 3.08-.88.35-1.85 1.41-1.85 2.81 0 1.58 1.41 2.9 2.99 2.9.35 0 .79-.09 1.23-.26 3.34-1.49 7.21-2.55 11.79-2.55 8.53 0 13.54 4.22 13.54 12.4v1.58c-4.05-1.14-8.18-1.93-13.98-1.93-11.52 0-19.44 5.1-19.44 14.69v.18c0 9.32 8.53 14.16 16.98 14.16m-25.94-6.78c.7-.62 1.06-1.41 1.06-2.2 0-1.58-1.32-2.9-2.99-2.9-.79 0-1.41.35-1.93.79-3.34 3.08-7.48 5.28-13.11 5.28-8.09 0-15.04-5.54-16.01-15.39h32.9c1.67 0 3.17-1.32 3.17-3.16 0-12.05-7.65-23.04-21.11-23.04-12.58 0-21.81 10.55-21.81 23.66v.18c0 14.07 10.2 23.66 22.69 23.66 7.74 0 12.84-2.73 17.15-6.86m-32.99-19.46c.88-8.88 6.86-15.48 14.78-15.48 9.06 0 13.81 7.21 14.51 15.48h-29.29Zm-35.1 22.25c0 1.93 1.5 3.43 3.43 3.43s3.34-1.58 3.34-3.43V50.2c0-13.11 7.21-19.7 16.01-20.76 1.76-.26 2.99-1.58 2.99-3.43s-1.32-3.43-3.34-3.43c-5.72 0-12.31 4.57-15.66 12.14v-8.53c0-1.93-1.5-3.43-3.43-3.43s-3.34 1.58-3.34 3.43v39.49Zm-32.81-2.11c-8.44 0-16.45-7.04-16.45-17.59v-.18c0-10.38 8-17.5 16.45-17.5s16.01 6.86 16.01 17.59v.18c0 10.99-7.21 17.5-16.01 17.5m-22.95 2.11c0 1.85 1.49 3.43 3.43 3.43s3.34-1.58 3.34-3.43v-5.72c3.52 5.1 8.97 9.68 17.41 9.68 10.99 0 21.73-8.79 21.73-23.66v-.18c0-14.95-10.82-23.57-21.73-23.57-8.35 0-13.72 4.66-17.41 10.11V7.46c0-1.94-1.5-3.43-3.43-3.43s-3.34 1.49-3.34 3.43v58.23ZM42.95 74.19c-.41.05-.82-.08-1.13-.36a1.47 1.47 0 0 1-.48-1.09v-9.07c0-.65.44-1.23 1.08-1.4l12.87-3.45a2.066 2.066 0 0 0 1.47-2.54 2.078 2.078 0 0 0-2.54-1.47l-11.04 2.96c-.43.11-.91.02-1.27-.25-.36-.28-.57-.7-.57-1.15V52.8c0-.66.44-1.23 1.07-1.4l17.04-4.71c1.1-.31 1.75-1.45 1.44-2.55-.3-1.1-1.44-1.75-2.55-1.45l-15.16 4.19c-.44.12-.91.03-1.27-.24-.36-.28-.57-.71-.57-1.17v-3.5c0-.66.44-1.24 1.08-1.41l12.87-3.44a2.07 2.07 0 1 0-1.07-4l-11.04 2.96c-.43.12-.91.02-1.27-.25s-.57-.7-.57-1.16v-3.53c0-.66.44-1.24 1.08-1.41l8.22-2.18a2.074 2.074 0 1 0-1.06-4.01l-6.42 1.69c-.44.11-.9.02-1.27-.26-.36-.27-.57-.7-.57-1.15v-8.81c0-1.15-.93-2.08-2.07-2.08s-2.08.93-2.08 2.08v8.81c0 .45-.21.88-.57 1.15-.36.28-.82.38-1.26.26l-6.42-1.69a2.074 2.074 0 0 0-1.06 4.01l8.22 2.18c.64.17 1.09.75 1.09 1.41v3.53c0 .45-.22.88-.57 1.16-.36.28-.83.37-1.27.25l-11.04-2.96a2.072 2.072 0 0 0-1.08 4l12.88 3.44c.64.17 1.08.75 1.08 1.41v3.5c0 .45-.22.89-.57 1.17-.37.27-.84.36-1.27.24l-15.16-4.19c-1.1-.31-2.25.34-2.55 1.45-.31 1.1.34 2.24 1.44 2.55L36.1 51.4c.64.18 1.07.74 1.07 1.4v3.57c0 .45-.22.87-.57 1.15-.36.28-.83.37-1.27.25l-11.04-2.96a2.077 2.077 0 0 0-1.08 4.01l12.88 3.45c.64.17 1.08.75 1.08 1.4v9.07c0 .41-.18.81-.48 1.09-.31.28-.72.4-1.13.36C17.92 72.34 4.12 57.38 4.12 39.27 4.14 19.9 19.9 4.15 39.27 4.15s35.11 15.76 35.11 35.12c0 18.12-13.79 33.08-31.44 34.92M39.27 0C17.61 0 0 17.61 0 39.27s17.61 39.27 39.27 39.27 39.26-17.61 39.26-39.27S60.92 0 39.27 0"/></svg>