<?xml version="1.0" encoding="UTF-8"?>
<svg id="building" xmlns="http://www.w3.org/2000/svg" viewBox="0 0 300 300">
  <defs>
    <style>
      .cls-1 {
        fill: #17181a;
        fill-rule: evenodd;
        stroke-width: 0px;
      }
    </style>
  </defs>
  <path class="cls-1" d="M156.45,105.2v-40.24h-13.08v40.24h-13.25v13.41h39.57v-13.41h-13.25ZM90.44,172.21h33.03c3.66,0,6.6,2.99,6.6,6.71v113.95c0,3.71-2.94,6.71-6.6,6.71s-6.6-2.99-6.6-6.71v-107.25h-39.68v107.25c0,3.71-2.94,6.71-6.6,6.71s-6.6-2.99-6.6-6.71v-113.95c0-3.71,2.94-6.71,6.6-6.71h6.6v-20.12c0-3.71,2.94-6.71,6.6-6.71h6.6v-20.12c0-3.71,2.94-6.71,6.6-6.71h19.84v-13.41c0-7.43,5.93-13.41,13.25-13.41v-26.83c0-7.37,5.88-13.36,13.19-13.41V18.08c0-3.71,2.94-6.71,6.6-6.71s6.6,2.99,6.6,6.71v33.53c7.32,0,13.19,6.04,13.19,13.41v26.83c7.32,0,13.25,5.99,13.25,13.41v13.41h19.84c3.66,0,6.6,2.99,6.6,6.71v20.12h6.6c3.66,0,6.6,2.99,6.6,6.71v20.12h6.6c3.66,0,6.6,2.99,6.6,6.71v113.95c0,3.71-2.94,6.71-6.6,6.71s-6.6-2.99-6.6-6.71v-107.25h-39.63v107.25c0,3.71-2.94,6.71-6.6,6.71s-6.6-2.99-6.6-6.71v-113.95c0-3.71,2.94-6.71,6.6-6.71h33.03v-13.41h-118.89v13.41-.11ZM196.19,145.44v-13.41h-92.56l-.22,13.41h92.78ZM143.31,185.63c0-3.71,2.94-6.71,6.6-6.71s6.6,2.99,6.6,6.71v100.54c0,3.71-2.94,6.71-6.6,6.71s-6.6-2.99-6.6-6.71c0,0,0-100.54,0-100.54ZM90.44,279.46v-67.01c0-3.71,2.94-6.71,6.6-6.71s6.6,2.99,6.6,6.71v67.01c0,3.71-2.94,6.71-6.6,6.71s-6.6-2.99-6.6-6.71ZM196.19,279.46v-67.01c0-3.71,2.94-6.71,6.6-6.71s6.6,2.99,6.6,6.71v67.01c0,3.71-2.94,6.71-6.6,6.71s-6.6-2.99-6.6-6.71Z"/>
</svg>