<?xml version="1.0" encoding="UTF-8"?>
<svg id="chair" xmlns="http://www.w3.org/2000/svg" viewBox="0 0 300 300">
  <defs>
    <style>
      .cls-1 {
        fill: #17181a;
        fill-rule: evenodd;
        stroke-width: 0px;
      }
    </style>
  </defs>
  <path class="cls-1" d="M66.91,144.39c0-13.83,11.07-24.96,24.96-24.96h74.94c13.78,0,24.96,11.24,24.96,24.96s12.51,0,12.51,0c7.95,0,12.51,5.59,12.51,12.51v56.2c0,.81-.12,1.61-.29,2.42.17,1.27.29,2.54.29,3.86v12.39c0,9.28-5.01,17.41-12.51,21.73v22.02c0,3.46-2.82,6.23-6.23,6.23s-6.23-2.82-6.23-6.23v-18.73h-124.91v18.73c0,3.46-2.82,6.23-6.23,6.23s-6.23-2.82-6.23-6.23v-22.02c-7.75-4.49-12.52-12.77-12.51-21.73v-12.39c0-1.33.12-2.65.29-3.92-.17-.81-.29-1.61-.29-2.42v-56.2c0-6.92,4.5-12.51,12.51-12.51h12.51l-.06.06ZM66.91,156.9h-12.51v40.81c3.63-2.13,7.9-3.34,12.39-3.34h3.46c-2.13-3.69-3.34-7.95-3.34-12.45,0,0,0-25.02,0-25.02ZM188.54,194.37h3.4c4.5,0,8.76,1.21,12.39,3.34v-40.81h-12.51v25.02c0,4.55-1.21,8.82-3.29,12.45ZM91.93,206.87h-25.07c-6.8,0-12.39,5.59-12.39,12.57v12.39c0,6.97,5.53,12.57,12.39,12.57h125.08c6.8,0,12.39-5.59,12.39-12.57v-12.39c0-6.97-5.53-12.57-12.39-12.57,0,0-100.01,0-100.01,0ZM79.42,144.39v37.53c0,6.86,5.59,12.45,12.51,12.45h74.94c6.97,0,12.51-5.53,12.51-12.45v-37.53c0-6.86-5.59-12.45-12.51-12.45h-74.94c-6.97,0-12.51,5.53-12.51,12.45ZM298,75.74c0,27.61-22.37,49.98-49.98,49.98s-49.98-22.37-49.98-49.98,22.37-49.98,49.98-49.98,49.98,22.37,49.98,49.98ZM285.49,75.74c0-20.69-16.77-37.47-37.47-37.47s-37.47,16.77-37.47,37.47,16.77,37.47,37.47,37.47,37.47-16.77,37.47-37.47ZM254.25,69.45h6.23c3.46,0,6.23,2.82,6.23,6.23s-2.82,6.23-6.23,6.23h-12.51c-3.46,0-6.23-2.77-6.23-6.23v-18.73c0-3.46,2.82-6.23,6.23-6.23s6.23,2.82,6.23,6.23v12.51h.06Z"/>
</svg>