<?xml version="1.0" encoding="UTF-8"?>
<svg id="desk_icon" data-name="desk icon" xmlns="http://www.w3.org/2000/svg" viewBox="0 0 300 300">
  <defs>
    <style>
      .cls-1 {
        fill: #17181a;
      }

      .cls-1, .cls-2, .cls-3 {
        fill-rule: evenodd;
        stroke-width: 0px;
      }

      .cls-2 {
        fill: #fff;
      }

      .cls-3 {
        fill: #000;
      }
    </style>
  </defs>
  <path class="cls-2" d="M109.65,138.23v18.94h56.82-6.31v-18.94s-50.5,0-50.5,0ZM103.34,131.91h63.13v31.56h-63.13v-31.56ZM242.22,201.36H27.58v-6.31h214.64s0,6.31,0,6.31Z"/>
  <path class="cls-1" d="M97.03,169.79v-37.88c0-3.47,2.89-6.31,6.31-6.31h63.08c3.47,0,6.31,2.84,6.31,6.31v37.88h82.02c3.52,0,6.37,2.79,6.37,6.37v12.52c0,3.52-2.84,6.37-6.37,6.37h-6.26v6.31c0,3.47-2.89,6.31-6.31,6.31h-6.31v77.02c0,3.47-2.79,6.31-6.31,6.31h-6.31c-3.47,0-6.31-2.79-6.31-6.31v-77.02H52.83v77.02c0,3.47-2.79,6.31-6.31,6.31h-6.31c-3.47,0-6.31-2.79-6.31-6.31v-77.02h-6.31c-3.47,0-6.31-2.79-6.31-6.31v-6.31h-6.26c-3.52,0-6.37-2.79-6.37-6.37v-12.52c0-3.52,2.84-6.37,6.37-6.37,0,0,82.02,0,82.02,0ZM254.8,176.1H15.01s-.05,0-.05.05v12.52s0,.05.05.05h239.79s.05,0,.05-.05v-12.52s0-.05-.05-.05ZM40.21,207.67v77.02h6.31v-77.02h-6.31ZM223.29,207.67v77.02h6.31v-77.02h-6.31ZM27.58,201.36h214.64v-6.31H27.58v6.31ZM103.34,157.16h63.13v-25.25h-63.13v25.25ZM103.34,163.48v6.31h63.08v-6.31h-63.08Z"/>
  <path class="cls-3" d="M263.95,130.81c.37-1.21.79-2.47,1.21-3.95,5.1-16.31,5.52-17.78,6.16-21.62,1.16-7.31,4-13.42,8.79-20.41.42-.63,1.26-1.84,2.1-3-5.84-1.63-10.15,1.58-13.73,10.57-3.84,9.73-6.26,25.36-7.05,46.93.68-2.58,1.53-5.42,2.47-8.52h.05ZM256.27,121.39c1.26-13.42,3.37-23.83,6.37-31.3,5.52-13.89,14.73-18.41,25.94-12.42,1.53.84,2.1,2.74,1.32,4.26-.05.12-.12.22-.21.32-.11.16-3.37,4.68-4.37,6.1-4.26,6.26-6.73,11.57-7.73,17.83-.68,4.31-1.05,5.63-6.37,22.57-.47,1.42-.84,2.68-1.21,3.89-3.52,11.42-5.21,18.78-5.16,23.57v3.21h-9.94v-2.1l-3.21-.16c0-16.94-8.94-33.09-15.36-33.09-7.47,0-12.94-3.47-12.94-8.68s5.42-8.68,12.94-8.68c10.36,0,16.78,5.05,19.99,14.73l-.05-.05ZM236.23,112.97c-4.47,0-6.63,1.37-6.63,2.37s2.21,2.37,6.63,2.37c5.84,0,11.63,5.58,15.73,13.78-1.58-12.47-6.63-18.52-15.73-18.52Z"/>
  <path class="cls-1" d="M248.54,258.17h12.63c13.89,0,25.25-11.31,25.25-25.2v-37.98c0-13.94-11.31-25.2-25.25-25.2v-6.31h-9.47c-1.74,0-3.16-1.42-3.16-3.16s1.42-3.16,3.16-3.16h3.21c-.26-55.19-7.05-70.02-32.88-70.02-5.16,0-9,1.74-16.57,6.73-1.1.74-1.68,1.1-2.26,1.47-8.15,5.31-13.57,7.21-20.57,5.89-8.52-1.63-10.47-6.31-9.1-14.31.04-.32.09-.61.16-.89.79-4.52.68-5.37-.74-5.94-3.26-1.32-5.42-.68-9.36,2.26-.47.37-.95.68-1.95,1.47-6.89,5.26-11.63,6.94-18.94,4.79-4.68-1.37-7.37-3.89-7.68-7.52-.21-2.53.58-4.79,2.47-8.31.18-.32.33-.61.47-.89,1.53-2.84,2.05-3.95,2.21-4.95.11-.58,0-.68-.79-1.05-1.79-.79-4-.53-7.26.95-1.05.47-2.05,1-3.79,1.89-10.47,5.58-15.15,6.26-19.62-1.1-1.32-2.16-1.74-4.58-1.42-7.05.37-2.79,1.47-5.21,3.63-8.79,2.37-4,2.58-4.31,2.79-5-1.84-.21-3.37-.47-6.21-.84-1.32-.21-1.95-.26-2.63-.37-6.16-.89-9.79-1.84-12.73-3.74-4.37-2.84-5.68-7.37-3.47-13.05,4.89-12.57,26.2-17.94,41.72-14.89,3.52.68,4.58.32,6.58-1.53,3.21-2.95,5.58-3.95,9.79-3.31,5.84.95,9.52,3.1,12.57,6.79.53.63,2.31,2.95,1.95,2.47,1.21,1.53,1.89,2.1,2.95,2.37,1.1.26,1.47.11,2.53-.79.16-.16.89-.79,1.1-.95,3-2.53,5.94-3.68,10.57-3.26,6.26.58,9.42,3.79,12.15,10,.21.42.42.95.79,1.79,1.26,3,2,4.05,2.95,4.37.53.21.84.11,1.84-.58.26-.16.53-.37,1.16-.84,6.79-4.84,13.1-3.63,24.36,7.73.95.95,1.79,1.89,2.63,2.84,3.42,4,5.73,8.05,8.31,13.99.74,1.63,4.84,11.73,6.37,15.2,2.79,6.42,5.84,12.68,9.68,19.62.58.79.79,1.16.89,1.53,8.73,10.89,11.68,31.25,11.84,65.81h6.26v6.94c14.41,2.89,25.25,15.62,25.25,30.88v37.98c0,17.41-14.15,31.51-31.56,31.51h-12.63c-5.73,0-5.94-6.31,0-6.31h-.16ZM233.07,72.78c-1.58-3.58-5.68-13.68-6.37-15.2-2.37-5.42-4.42-8.94-7.37-12.42-.68-.84-1.47-1.68-2.31-2.47-9.26-9.36-12.21-9.94-16.2-7.05-.63.42-.95.68-1.32.95-2.47,1.68-4.73,2.26-7.47,1.32-3.21-1.16-4.73-3.26-6.68-7.84-.37-.89-.58-1.32-.74-1.74-1.89-4.31-3.47-5.94-6.94-6.26-2.79-.26-4.1.26-5.89,1.79-.16.11-.89.79-1.1.95-2.47,2.05-4.73,2.84-8.05,2.1-2.74-.63-4.47-2.05-6.47-4.63.32.42-1.37-1.79-1.79-2.31-2.1-2.53-4.42-3.95-8.68-4.58-2-.32-2.63-.05-4.21,1.42l-.32.32c-3.37,3.1-6.42,4.21-12.1,3.05-12.84-2.58-31.09,2.05-34.56,11-1.16,2.95-.74,4.31,1,5.47,1.89,1.21,4.89,2,10.21,2.79.68.11,1.32.21,2.63.37,3.05.42,4.68.68,6.31,1.05,4.05.95,6.05,3.68,5.21,7.31-.26,1.1-.74,2.26-1.53,3.63-.26.47-.58,1-1,1.68-.53.84-.79,1.32-1,1.68-1.74,2.84-2.58,4.68-2.79,6.37-.16,1.16,0,2.05.58,3,1.89,3.1,3.63,2.84,11.26-1.21,1.84-1,2.95-1.53,4.16-2.1,4.79-2.16,8.68-2.68,12.47-.95,3.42,1.58,4.95,4.37,4.42,7.73-.32,2-.95,3.37-2.89,7-.18.28-.33.58-.47.89-1.32,2.47-1.84,3.89-1.74,4.79.05.68.74,1.37,3.16,2.05,4.95,1.42,7.89.37,13.36-3.79,1-.74,1.47-1.16,2-1.53,5.52-4.1,9.79-5.31,15.52-3,5.37,2.21,5.89,5.63,4.58,12.89-.04.28-.09.56-.16.84-.84,5.05-.37,6.21,4.05,7.05,5,.95,9.05-.53,15.99-5,.58-.37,1.1-.74,2.21-1.47,8.58-5.63,13.26-7.73,20.04-7.73,3.79,0,7.21.26,10.36.84-25.73-23.78-66.23-40.14-96.01-41.82-1.72-.1-3.04-1.57-2.95-3.29,0,0,0-.01,0-.02.11-1.74,1.58-3.05,3.31-3,30.09,1.74,70.23,17.52,97.17,40.98-.26-.58-.53-1.16-.79-1.79l-.11-.11Z"/>
</svg>